<?xml version="1.0" encoding="UTF-8" standalone="no"?>
<!DOCTYPE svg PUBLIC "-//W3C//DTD SVG 1.1//EN"
 "http://www.w3.org/Graphics/SVG/1.1/DTD/svg11.dtd">
<!-- Generated by graphviz version 2.50.0 (20211204.2007)
 -->
<!-- Pages: 1 -->
<svg width="1485pt" height="548pt"
 viewBox="0.00 0.00 1484.97 548.00" xmlns="http://www.w3.org/2000/svg" xmlns:xlink="http://www.w3.org/1999/xlink">
<g id="graph0" class="graph" transform="scale(1 1) rotate(0) translate(4 544)">
<polygon fill="white" stroke="transparent" points="-4,4 -4,-544 1480.97,-544 1480.97,4 -4,4"/>
<!-- [root] aws_eip.ngw&#45;ip (expand) -->
<g id="node1" class="node">
<title>[root] aws_eip.ngw&#45;ip (expand)</title>
<polygon fill="none" stroke="black" points="478.97,-108 375.97,-108 375.97,-72 478.97,-72 478.97,-108"/>
<text text-anchor="middle" x="427.47" y="-86.3" font-family="Times,serif" font-size="14.00">aws_eip.ngw&#45;ip</text>
</g>
<!-- [root] provider[&quot;registry.terraform.io/hashicorp/aws&quot;] -->
<g id="node22" class="node">
<title>[root] provider[&quot;registry.terraform.io/hashicorp/aws&quot;]</title>
<polygon fill="none" stroke="black" points="427.47,-36 174.93,-18 427.47,0 680.01,-18 427.47,-36"/>
<text text-anchor="middle" x="427.47" y="-14.3" font-family="Times,serif" font-size="14.00">provider[&quot;registry.terraform.io/hashicorp/aws&quot;]</text>
</g>
<!-- [root] aws_eip.ngw&#45;ip (expand)&#45;&gt;[root] provider[&quot;registry.terraform.io/hashicorp/aws&quot;] -->
<g id="edge1" class="edge">
<title>[root] aws_eip.ngw&#45;ip (expand)&#45;&gt;[root] provider[&quot;registry.terraform.io/hashicorp/aws&quot;]</title>
<path fill="none" stroke="black" d="M427.47,-71.7C427.47,-63.98 427.47,-54.71 427.47,-46.11"/>
<polygon fill="black" stroke="black" points="430.97,-46.1 427.47,-36.1 423.97,-46.1 430.97,-46.1"/>
</g>
<!-- [root] aws_instance.app (expand) -->
<g id="node2" class="node">
<title>[root] aws_instance.app (expand)</title>
<polygon fill="none" stroke="black" points="1160.47,-396 1048.47,-396 1048.47,-360 1160.47,-360 1160.47,-396"/>
<text text-anchor="middle" x="1104.47" y="-374.3" font-family="Times,serif" font-size="14.00">aws_instance.app</text>
</g>
<!-- [root] aws_security_group.private_instance_sg (expand) -->
<g id="node15" class="node">
<title>[root] aws_security_group.private_instance_sg (expand)</title>
<polygon fill="none" stroke="black" points="1099.47,-324 863.47,-324 863.47,-288 1099.47,-288 1099.47,-324"/>
<text text-anchor="middle" x="981.47" y="-302.3" font-family="Times,serif" font-size="14.00">aws_security_group.private_instance_sg</text>
</g>
<!-- [root] aws_instance.app (expand)&#45;&gt;[root] aws_security_group.private_instance_sg (expand) -->
<g id="edge2" class="edge">
<title>[root] aws_instance.app (expand)&#45;&gt;[root] aws_security_group.private_instance_sg (expand)</title>
<path fill="none" stroke="black" d="M1074.38,-359.88C1058.15,-350.64 1037.93,-339.13 1020.5,-329.21"/>
<polygon fill="black" stroke="black" points="1022.1,-326.09 1011.67,-324.19 1018.63,-332.18 1022.1,-326.09"/>
</g>
<!-- [root] aws_subnet.private&#45;subnet1 (expand) -->
<g id="node17" class="node">
<title>[root] aws_subnet.private&#45;subnet1 (expand)</title>
<polygon fill="none" stroke="black" points="844.97,-324 677.97,-324 677.97,-288 844.97,-288 844.97,-324"/>
<text text-anchor="middle" x="761.47" y="-302.3" font-family="Times,serif" font-size="14.00">aws_subnet.private&#45;subnet1</text>
</g>
<!-- [root] aws_instance.app (expand)&#45;&gt;[root] aws_subnet.private&#45;subnet1 (expand) -->
<g id="edge3" class="edge">
<title>[root] aws_instance.app (expand)&#45;&gt;[root] aws_subnet.private&#45;subnet1 (expand)</title>
<path fill="none" stroke="black" d="M1048.36,-362.29C1045.02,-361.49 1041.7,-360.72 1038.47,-360 1004.22,-352.32 921.43,-336.62 855.23,-324.29"/>
<polygon fill="black" stroke="black" points="855.64,-320.8 845.17,-322.41 854.36,-327.68 855.64,-320.8"/>
</g>
<!-- [root] aws_instance.bastion (expand) -->
<g id="node3" class="node">
<title>[root] aws_instance.bastion (expand)</title>
<polygon fill="none" stroke="black" points="188.97,-252 57.97,-252 57.97,-216 188.97,-216 188.97,-252"/>
<text text-anchor="middle" x="123.47" y="-230.3" font-family="Times,serif" font-size="14.00">aws_instance.bastion</text>
</g>
<!-- [root] aws_security_group.bastion_sg (expand) -->
<g id="node14" class="node">
<title>[root] aws_security_group.bastion_sg (expand)</title>
<polygon fill="none" stroke="black" points="216.97,-180 29.97,-180 29.97,-144 216.97,-144 216.97,-180"/>
<text text-anchor="middle" x="123.47" y="-158.3" font-family="Times,serif" font-size="14.00">aws_security_group.bastion_sg</text>
</g>
<!-- [root] aws_instance.bastion (expand)&#45;&gt;[root] aws_security_group.bastion_sg (expand) -->
<g id="edge4" class="edge">
<title>[root] aws_instance.bastion (expand)&#45;&gt;[root] aws_security_group.bastion_sg (expand)</title>
<path fill="none" stroke="black" d="M123.47,-215.7C123.47,-207.98 123.47,-198.71 123.47,-190.11"/>
<polygon fill="black" stroke="black" points="126.97,-190.1 123.47,-180.1 119.97,-190.1 126.97,-190.1"/>
</g>
<!-- [root] aws_subnet.public&#45;subnet1 (expand) -->
<g id="node19" class="node">
<title>[root] aws_subnet.public&#45;subnet1 (expand)</title>
<polygon fill="none" stroke="black" points="399.47,-180 235.47,-180 235.47,-144 399.47,-144 399.47,-180"/>
<text text-anchor="middle" x="317.47" y="-158.3" font-family="Times,serif" font-size="14.00">aws_subnet.public&#45;subnet1</text>
</g>
<!-- [root] aws_instance.bastion (expand)&#45;&gt;[root] aws_subnet.public&#45;subnet1 (expand) -->
<g id="edge5" class="edge">
<title>[root] aws_instance.bastion (expand)&#45;&gt;[root] aws_subnet.public&#45;subnet1 (expand)</title>
<path fill="none" stroke="black" d="M170.93,-215.88C198.04,-206.09 232.21,-193.77 260.73,-183.47"/>
<polygon fill="black" stroke="black" points="261.95,-186.75 270.17,-180.07 259.57,-180.17 261.95,-186.75"/>
</g>
<!-- [root] aws_instance.jenkins (expand) -->
<g id="node4" class="node">
<title>[root] aws_instance.jenkins (expand)</title>
<polygon fill="none" stroke="black" points="1029.97,-396 898.97,-396 898.97,-360 1029.97,-360 1029.97,-396"/>
<text text-anchor="middle" x="964.47" y="-374.3" font-family="Times,serif" font-size="14.00">aws_instance.jenkins</text>
</g>
<!-- [root] aws_instance.jenkins (expand)&#45;&gt;[root] aws_security_group.private_instance_sg (expand) -->
<g id="edge6" class="edge">
<title>[root] aws_instance.jenkins (expand)&#45;&gt;[root] aws_security_group.private_instance_sg (expand)</title>
<path fill="none" stroke="black" d="M968.67,-359.7C970.57,-351.9 972.85,-342.51 974.95,-333.83"/>
<polygon fill="black" stroke="black" points="978.36,-334.65 977.32,-324.1 971.55,-333 978.36,-334.65"/>
</g>
<!-- [root] aws_instance.jenkins (expand)&#45;&gt;[root] aws_subnet.private&#45;subnet1 (expand) -->
<g id="edge7" class="edge">
<title>[root] aws_instance.jenkins (expand)&#45;&gt;[root] aws_subnet.private&#45;subnet1 (expand)</title>
<path fill="none" stroke="black" d="M915.07,-359.97C886.58,-350.14 850.58,-337.73 820.6,-327.39"/>
<polygon fill="black" stroke="black" points="821.69,-324.06 811.09,-324.11 819.4,-330.68 821.69,-324.06"/>
</g>
<!-- [root] aws_internet_gateway.igw (expand) -->
<g id="node5" class="node">
<title>[root] aws_internet_gateway.igw (expand)</title>
<polygon fill="none" stroke="black" points="616.97,-180 455.97,-180 455.97,-144 616.97,-144 616.97,-180"/>
<text text-anchor="middle" x="536.47" y="-158.3" font-family="Times,serif" font-size="14.00">aws_internet_gateway.igw</text>
</g>
<!-- [root] aws_vpc.main (expand) -->
<g id="node21" class="node">
<title>[root] aws_vpc.main (expand)</title>
<polygon fill="none" stroke="black" points="765.97,-108 670.97,-108 670.97,-72 765.97,-72 765.97,-108"/>
<text text-anchor="middle" x="718.47" y="-86.3" font-family="Times,serif" font-size="14.00">aws_vpc.main</text>
</g>
<!-- [root] aws_internet_gateway.igw (expand)&#45;&gt;[root] aws_vpc.main (expand) -->
<g id="edge8" class="edge">
<title>[root] aws_internet_gateway.igw (expand)&#45;&gt;[root] aws_vpc.main (expand)</title>
<path fill="none" stroke="black" d="M580.99,-143.88C606.2,-134.18 637.92,-121.98 664.54,-111.74"/>
<polygon fill="black" stroke="black" points="666.01,-114.92 674.09,-108.07 663.5,-108.39 666.01,-114.92"/>
</g>
<!-- [root] aws_nat_gateway.ngw (expand) -->
<g id="node6" class="node">
<title>[root] aws_nat_gateway.ngw (expand)</title>
<polygon fill="none" stroke="black" points="437.97,-252 298.97,-252 298.97,-216 437.97,-216 437.97,-252"/>
<text text-anchor="middle" x="368.47" y="-230.3" font-family="Times,serif" font-size="14.00">aws_nat_gateway.ngw</text>
</g>
<!-- [root] aws_nat_gateway.ngw (expand)&#45;&gt;[root] aws_eip.ngw&#45;ip (expand) -->
<g id="edge9" class="edge">
<title>[root] aws_nat_gateway.ngw (expand)&#45;&gt;[root] aws_eip.ngw&#45;ip (expand)</title>
<path fill="none" stroke="black" d="M384.67,-215.63C392.96,-205.84 402.53,-193 408.47,-180 417.47,-160.3 422.28,-136.17 424.8,-118.01"/>
<polygon fill="black" stroke="black" points="428.28,-118.45 426.04,-108.09 421.33,-117.58 428.28,-118.45"/>
</g>
<!-- [root] aws_nat_gateway.ngw (expand)&#45;&gt;[root] aws_internet_gateway.igw (expand) -->
<g id="edge10" class="edge">
<title>[root] aws_nat_gateway.ngw (expand)&#45;&gt;[root] aws_internet_gateway.igw (expand)</title>
<path fill="none" stroke="black" d="M409.57,-215.88C432.64,-206.26 461.61,-194.19 486.04,-184.01"/>
<polygon fill="black" stroke="black" points="487.62,-187.15 495.51,-180.07 484.93,-180.68 487.62,-187.15"/>
</g>
<!-- [root] aws_nat_gateway.ngw (expand)&#45;&gt;[root] aws_subnet.public&#45;subnet1 (expand) -->
<g id="edge11" class="edge">
<title>[root] aws_nat_gateway.ngw (expand)&#45;&gt;[root] aws_subnet.public&#45;subnet1 (expand)</title>
<path fill="none" stroke="black" d="M355.86,-215.7C349.87,-207.47 342.59,-197.48 335.99,-188.42"/>
<polygon fill="black" stroke="black" points="338.65,-186.13 329.93,-180.1 332.99,-190.25 338.65,-186.13"/>
</g>
<!-- [root] aws_route_table.private&#45;route (expand) -->
<g id="node7" class="node">
<title>[root] aws_route_table.private&#45;route (expand)</title>
<polygon fill="none" stroke="black" points="659.97,-324 480.97,-324 480.97,-288 659.97,-288 659.97,-324"/>
<text text-anchor="middle" x="570.47" y="-302.3" font-family="Times,serif" font-size="14.00">aws_route_table.private&#45;route</text>
</g>
<!-- [root] aws_route_table.private&#45;route (expand)&#45;&gt;[root] aws_nat_gateway.ngw (expand) -->
<g id="edge12" class="edge">
<title>[root] aws_route_table.private&#45;route (expand)&#45;&gt;[root] aws_nat_gateway.ngw (expand)</title>
<path fill="none" stroke="black" d="M521.31,-287.97C492.97,-278.14 457.14,-265.73 427.31,-255.39"/>
<polygon fill="black" stroke="black" points="428.44,-252.08 417.85,-252.11 426.15,-258.69 428.44,-252.08"/>
</g>
<!-- [root] aws_route_table.public&#45;route (expand) -->
<g id="node8" class="node">
<title>[root] aws_route_table.public&#45;route (expand)</title>
<polygon fill="none" stroke="black" points="630.97,-252 455.97,-252 455.97,-216 630.97,-216 630.97,-252"/>
<text text-anchor="middle" x="543.47" y="-230.3" font-family="Times,serif" font-size="14.00">aws_route_table.public&#45;route</text>
</g>
<!-- [root] aws_route_table.public&#45;route (expand)&#45;&gt;[root] aws_internet_gateway.igw (expand) -->
<g id="edge13" class="edge">
<title>[root] aws_route_table.public&#45;route (expand)&#45;&gt;[root] aws_internet_gateway.igw (expand)</title>
<path fill="none" stroke="black" d="M541.74,-215.7C540.97,-207.98 540.04,-198.71 539.18,-190.11"/>
<polygon fill="black" stroke="black" points="542.66,-189.71 538.18,-180.1 535.69,-190.4 542.66,-189.71"/>
</g>
<!-- [root] aws_route_table_association.rt&#45;association&#45;pri1 (expand) -->
<g id="node9" class="node">
<title>[root] aws_route_table_association.rt&#45;association&#45;pri1 (expand)</title>
<polygon fill="none" stroke="black" points="880.97,-396 605.97,-396 605.97,-360 880.97,-360 880.97,-396"/>
<text text-anchor="middle" x="743.47" y="-374.3" font-family="Times,serif" font-size="14.00">aws_route_table_association.rt&#45;association&#45;pri1</text>
</g>
<!-- [root] aws_route_table_association.rt&#45;association&#45;pri1 (expand)&#45;&gt;[root] aws_route_table.private&#45;route (expand) -->
<g id="edge14" class="edge">
<title>[root] aws_route_table_association.rt&#45;association&#45;pri1 (expand)&#45;&gt;[root] aws_route_table.private&#45;route (expand)</title>
<path fill="none" stroke="black" d="M701.15,-359.88C677.29,-350.22 647.3,-338.09 622.07,-327.88"/>
<polygon fill="black" stroke="black" points="623.24,-324.57 612.65,-324.07 620.61,-331.06 623.24,-324.57"/>
</g>
<!-- [root] aws_route_table_association.rt&#45;association&#45;pri1 (expand)&#45;&gt;[root] aws_subnet.private&#45;subnet1 (expand) -->
<g id="edge15" class="edge">
<title>[root] aws_route_table_association.rt&#45;association&#45;pri1 (expand)&#45;&gt;[root] aws_subnet.private&#45;subnet1 (expand)</title>
<path fill="none" stroke="black" d="M747.92,-359.7C749.92,-351.9 752.34,-342.51 754.57,-333.83"/>
<polygon fill="black" stroke="black" points="757.97,-334.66 757.07,-324.1 751.19,-332.92 757.97,-334.66"/>
</g>
<!-- [root] aws_route_table_association.rt&#45;association&#45;pri2 (expand) -->
<g id="node10" class="node">
<title>[root] aws_route_table_association.rt&#45;association&#45;pri2 (expand)</title>
<polygon fill="none" stroke="black" points="587.97,-396 312.97,-396 312.97,-360 587.97,-360 587.97,-396"/>
<text text-anchor="middle" x="450.47" y="-374.3" font-family="Times,serif" font-size="14.00">aws_route_table_association.rt&#45;association&#45;pri2</text>
</g>
<!-- [root] aws_route_table_association.rt&#45;association&#45;pri2 (expand)&#45;&gt;[root] aws_route_table.private&#45;route (expand) -->
<g id="edge16" class="edge">
<title>[root] aws_route_table_association.rt&#45;association&#45;pri2 (expand)&#45;&gt;[root] aws_route_table.private&#45;route (expand)</title>
<path fill="none" stroke="black" d="M479.82,-359.88C495.51,-350.72 515.03,-339.34 531.92,-329.48"/>
<polygon fill="black" stroke="black" points="534.13,-332.25 541,-324.19 530.6,-326.21 534.13,-332.25"/>
</g>
<!-- [root] aws_subnet.private&#45;subnet2 (expand) -->
<g id="node18" class="node">
<title>[root] aws_subnet.private&#45;subnet2 (expand)</title>
<polygon fill="none" stroke="black" points="801.97,-180 634.97,-180 634.97,-144 801.97,-144 801.97,-180"/>
<text text-anchor="middle" x="718.47" y="-158.3" font-family="Times,serif" font-size="14.00">aws_subnet.private&#45;subnet2</text>
</g>
<!-- [root] aws_route_table_association.rt&#45;association&#45;pri2 (expand)&#45;&gt;[root] aws_subnet.private&#45;subnet2 (expand) -->
<g id="edge17" class="edge">
<title>[root] aws_route_table_association.rt&#45;association&#45;pri2 (expand)&#45;&gt;[root] aws_subnet.private&#45;subnet2 (expand)</title>
<path fill="none" stroke="black" d="M449.46,-359.65C449.29,-339.55 452.3,-306.77 471.47,-288 526.02,-234.56 573.51,-290.47 639.47,-252 666.05,-236.5 688.45,-208.9 702.53,-188.54"/>
<polygon fill="black" stroke="black" points="705.57,-190.29 708.22,-180.03 699.75,-186.4 705.57,-190.29"/>
</g>
<!-- [root] aws_route_table_association.rt&#45;association&#45;pub1 (expand) -->
<g id="node11" class="node">
<title>[root] aws_route_table_association.rt&#45;association&#45;pub1 (expand)</title>
<polygon fill="none" stroke="black" points="424.47,-324 144.47,-324 144.47,-288 424.47,-288 424.47,-324"/>
<text text-anchor="middle" x="284.47" y="-302.3" font-family="Times,serif" font-size="14.00">aws_route_table_association.rt&#45;association&#45;pub1</text>
</g>
<!-- [root] aws_route_table_association.rt&#45;association&#45;pub1 (expand)&#45;&gt;[root] aws_route_table.public&#45;route (expand) -->
<g id="edge18" class="edge">
<title>[root] aws_route_table_association.rt&#45;association&#45;pub1 (expand)&#45;&gt;[root] aws_route_table.public&#45;route (expand)</title>
<path fill="none" stroke="black" d="M347.5,-287.97C384.63,-277.93 431.76,-265.19 470.5,-254.72"/>
<polygon fill="black" stroke="black" points="471.42,-258.1 480.16,-252.11 469.59,-251.34 471.42,-258.1"/>
</g>
<!-- [root] aws_route_table_association.rt&#45;association&#45;pub1 (expand)&#45;&gt;[root] aws_subnet.public&#45;subnet1 (expand) -->
<g id="edge19" class="edge">
<title>[root] aws_route_table_association.rt&#45;association&#45;pub1 (expand)&#45;&gt;[root] aws_subnet.public&#45;subnet1 (expand)</title>
<path fill="none" stroke="black" d="M283.3,-287.92C282.53,-269.74 282.71,-240.3 289.47,-216 292.02,-206.82 296.33,-197.43 300.81,-189.15"/>
<polygon fill="black" stroke="black" points="303.92,-190.76 305.86,-180.35 297.85,-187.28 303.92,-190.76"/>
</g>
<!-- [root] aws_route_table_association.rt&#45;association&#45;pub2 (expand) -->
<g id="node12" class="node">
<title>[root] aws_route_table_association.rt&#45;association&#45;pub2 (expand)</title>
<polygon fill="none" stroke="black" points="1397.47,-324 1117.47,-324 1117.47,-288 1397.47,-288 1397.47,-324"/>
<text text-anchor="middle" x="1257.47" y="-302.3" font-family="Times,serif" font-size="14.00">aws_route_table_association.rt&#45;association&#45;pub2</text>
</g>
<!-- [root] aws_route_table_association.rt&#45;association&#45;pub2 (expand)&#45;&gt;[root] aws_route_table.public&#45;route (expand) -->
<g id="edge20" class="edge">
<title>[root] aws_route_table_association.rt&#45;association&#45;pub2 (expand)&#45;&gt;[root] aws_route_table.public&#45;route (expand)</title>
<path fill="none" stroke="black" d="M1117.1,-288.91C1114.2,-288.6 1111.32,-288.3 1108.47,-288 944.62,-270.97 753.78,-253.58 641.1,-243.56"/>
<polygon fill="black" stroke="black" points="641.39,-240.07 631.12,-242.67 640.77,-247.04 641.39,-240.07"/>
</g>
<!-- [root] aws_subnet.public&#45;subnet2 (expand) -->
<g id="node20" class="node">
<title>[root] aws_subnet.public&#45;subnet2 (expand)</title>
<polygon fill="none" stroke="black" points="1200.47,-252 1036.47,-252 1036.47,-216 1200.47,-216 1200.47,-252"/>
<text text-anchor="middle" x="1118.47" y="-230.3" font-family="Times,serif" font-size="14.00">aws_subnet.public&#45;subnet2</text>
</g>
<!-- [root] aws_route_table_association.rt&#45;association&#45;pub2 (expand)&#45;&gt;[root] aws_subnet.public&#45;subnet2 (expand) -->
<g id="edge21" class="edge">
<title>[root] aws_route_table_association.rt&#45;association&#45;pub2 (expand)&#45;&gt;[root] aws_subnet.public&#45;subnet2 (expand)</title>
<path fill="none" stroke="black" d="M1223.47,-287.88C1204.87,-278.51 1181.64,-266.81 1161.76,-256.8"/>
<polygon fill="black" stroke="black" points="1163.11,-253.56 1152.6,-252.19 1159.96,-259.81 1163.11,-253.56"/>
</g>
<!-- [root] aws_s3_bucket.terraform&#45;backend (expand) -->
<g id="node13" class="node">
<title>[root] aws_s3_bucket.terraform&#45;backend (expand)</title>
<polygon fill="none" stroke="black" points="230.47,-108 26.47,-108 26.47,-72 230.47,-72 230.47,-108"/>
<text text-anchor="middle" x="128.47" y="-86.3" font-family="Times,serif" font-size="14.00">aws_s3_bucket.terraform&#45;backend</text>
</g>
<!-- [root] aws_s3_bucket.terraform&#45;backend (expand)&#45;&gt;[root] provider[&quot;registry.terraform.io/hashicorp/aws&quot;] -->
<g id="edge22" class="edge">
<title>[root] aws_s3_bucket.terraform&#45;backend (expand)&#45;&gt;[root] provider[&quot;registry.terraform.io/hashicorp/aws&quot;]</title>
<path fill="none" stroke="black" d="M201.23,-71.97C250.13,-60.52 314.06,-45.55 361.48,-34.45"/>
<polygon fill="black" stroke="black" points="362.4,-37.83 371.33,-32.14 360.8,-31.01 362.4,-37.83"/>
</g>
<!-- [root] aws_security_group.bastion_sg (expand)&#45;&gt;[root] aws_vpc.main (expand) -->
<g id="edge23" class="edge">
<title>[root] aws_security_group.bastion_sg (expand)&#45;&gt;[root] aws_vpc.main (expand)</title>
<path fill="none" stroke="black" d="M217.18,-145.3C220.31,-144.85 223.42,-144.42 226.47,-144 383.02,-122.67 568.56,-104.63 660.64,-96.17"/>
<polygon fill="black" stroke="black" points="661.23,-99.63 670.87,-95.23 660.59,-92.66 661.23,-99.63"/>
</g>
<!-- [root] aws_security_group.private_instance_sg (expand)&#45;&gt;[root] aws_vpc.main (expand) -->
<g id="edge24" class="edge">
<title>[root] aws_security_group.private_instance_sg (expand)&#45;&gt;[root] aws_vpc.main (expand)</title>
<path fill="none" stroke="black" d="M968.9,-287.99C944.79,-256.3 889.11,-187.47 829.47,-144 812.27,-131.46 791.64,-120.66 772.86,-112.13"/>
<polygon fill="black" stroke="black" points="774.08,-108.85 763.52,-108.01 771.25,-115.25 774.08,-108.85"/>
</g>
<!-- [root] aws_security_group.public_web_sg (expand) -->
<g id="node16" class="node">
<title>[root] aws_security_group.public_web_sg (expand)</title>
<polygon fill="none" stroke="black" points="1476.97,-252 1265.97,-252 1265.97,-216 1476.97,-216 1476.97,-252"/>
<text text-anchor="middle" x="1371.47" y="-230.3" font-family="Times,serif" font-size="14.00">aws_security_group.public_web_sg</text>
</g>
<!-- [root] aws_security_group.public_web_sg (expand)&#45;&gt;[root] aws_vpc.main (expand) -->
<g id="edge25" class="edge">
<title>[root] aws_security_group.public_web_sg (expand)&#45;&gt;[root] aws_vpc.main (expand)</title>
<path fill="none" stroke="black" d="M1300.47,-215.94C1223.15,-197.53 1095.75,-167.65 985.47,-144 913.63,-128.59 830.56,-112.35 776.41,-101.97"/>
<polygon fill="black" stroke="black" points="776.79,-98.48 766.31,-100.04 775.47,-105.35 776.79,-98.48"/>
</g>
<!-- [root] aws_subnet.private&#45;subnet1 (expand)&#45;&gt;[root] aws_vpc.main (expand) -->
<g id="edge26" class="edge">
<title>[root] aws_subnet.private&#45;subnet1 (expand)&#45;&gt;[root] aws_vpc.main (expand)</title>
<path fill="none" stroke="black" d="M775.1,-288C797.8,-257.47 838.25,-192.06 810.47,-144 802.45,-130.12 789.26,-119.56 775.35,-111.66"/>
<polygon fill="black" stroke="black" points="776.62,-108.38 766.14,-106.84 773.38,-114.58 776.62,-108.38"/>
</g>
<!-- [root] aws_subnet.private&#45;subnet2 (expand)&#45;&gt;[root] aws_vpc.main (expand) -->
<g id="edge27" class="edge">
<title>[root] aws_subnet.private&#45;subnet2 (expand)&#45;&gt;[root] aws_vpc.main (expand)</title>
<path fill="none" stroke="black" d="M718.47,-143.7C718.47,-135.98 718.47,-126.71 718.47,-118.11"/>
<polygon fill="black" stroke="black" points="721.97,-118.1 718.47,-108.1 714.97,-118.1 721.97,-118.1"/>
</g>
<!-- [root] aws_subnet.public&#45;subnet1 (expand)&#45;&gt;[root] aws_vpc.main (expand) -->
<g id="edge28" class="edge">
<title>[root] aws_subnet.public&#45;subnet1 (expand)&#45;&gt;[root] aws_vpc.main (expand)</title>
<path fill="none" stroke="black" d="M399.59,-146.67C477.28,-133.1 591.94,-113.09 660.51,-101.12"/>
<polygon fill="black" stroke="black" points="661.45,-104.51 670.7,-99.34 660.25,-97.61 661.45,-104.51"/>
</g>
<!-- [root] aws_subnet.public&#45;subnet2 (expand)&#45;&gt;[root] aws_vpc.main (expand) -->
<g id="edge29" class="edge">
<title>[root] aws_subnet.public&#45;subnet2 (expand)&#45;&gt;[root] aws_vpc.main (expand)</title>
<path fill="none" stroke="black" d="M1086.98,-215.97C1049.92,-196.46 986.11,-164.56 928.47,-144 878.14,-126.05 818.98,-111.69 776.3,-102.48"/>
<polygon fill="black" stroke="black" points="776.87,-99.02 766.36,-100.36 775.41,-105.87 776.87,-99.02"/>
</g>
<!-- [root] aws_vpc.main (expand)&#45;&gt;[root] provider[&quot;registry.terraform.io/hashicorp/aws&quot;] -->
<g id="edge30" class="edge">
<title>[root] aws_vpc.main (expand)&#45;&gt;[root] provider[&quot;registry.terraform.io/hashicorp/aws&quot;]</title>
<path fill="none" stroke="black" d="M670.74,-77.52C622.02,-65.8 546.06,-47.53 492,-34.52"/>
<polygon fill="black" stroke="black" points="492.71,-31.09 482.17,-32.16 491.07,-37.9 492.71,-31.09"/>
</g>
<!-- [root] var.ami&#45;id -->
<g id="node23" class="node">
<title>[root] var.ami&#45;id</title>
<polygon fill="none" stroke="black" points="1055.97,-468 988.97,-468 988.97,-432 1061.97,-432 1061.97,-462 1055.97,-468"/>
<polyline fill="none" stroke="black" points="1055.97,-468 1055.97,-462 "/>
<polyline fill="none" stroke="black" points="1061.97,-462 1055.97,-462 "/>
<text text-anchor="middle" x="1025.47" y="-446.3" font-family="Times,serif" font-size="14.00">var.ami&#45;id</text>
</g>
<!-- [root] var.ec2&#45;type -->
<g id="node24" class="node">
<title>[root] var.ec2&#45;type</title>
<polygon fill="none" stroke="black" points="1156.97,-468 1079.97,-468 1079.97,-432 1162.97,-432 1162.97,-462 1156.97,-468"/>
<polyline fill="none" stroke="black" points="1156.97,-468 1156.97,-462 "/>
<polyline fill="none" stroke="black" points="1162.97,-462 1156.97,-462 "/>
<text text-anchor="middle" x="1121.47" y="-446.3" font-family="Times,serif" font-size="14.00">var.ec2&#45;type</text>
</g>
<!-- [root] provider[&quot;registry.terraform.io/hashicorp/aws&quot;] (close) -->
<g id="node25" class="node">
<title>[root] provider[&quot;registry.terraform.io/hashicorp/aws&quot;] (close)</title>
<ellipse fill="none" stroke="black" cx="743.47" cy="-450" rx="227.46" ry="18"/>
<text text-anchor="middle" x="743.47" y="-446.3" font-family="Times,serif" font-size="14.00">[root] provider[&quot;registry.terraform.io/hashicorp/aws&quot;] (close)</text>
</g>
<!-- [root] provider[&quot;registry.terraform.io/hashicorp/aws&quot;] (close)&#45;&gt;[root] aws_instance.app (expand) -->
<g id="edge31" class="edge">
<title>[root] provider[&quot;registry.terraform.io/hashicorp/aws&quot;] (close)&#45;&gt;[root] aws_instance.app (expand)</title>
<path fill="none" stroke="black" d="M839.15,-433.66C897.05,-423.92 972.25,-410.46 1038.47,-396 1038.57,-395.98 1038.67,-395.96 1038.77,-395.93"/>
<polygon fill="black" stroke="black" points="1039.39,-399.38 1048.37,-393.75 1037.84,-392.56 1039.39,-399.38"/>
</g>
<!-- [root] provider[&quot;registry.terraform.io/hashicorp/aws&quot;] (close)&#45;&gt;[root] aws_instance.bastion (expand) -->
<g id="edge32" class="edge">
<title>[root] provider[&quot;registry.terraform.io/hashicorp/aws&quot;] (close)&#45;&gt;[root] aws_instance.bastion (expand)</title>
<path fill="none" stroke="black" d="M544.64,-441.19C461.96,-434.11 365.79,-420.81 281.47,-396 212.06,-375.58 177.7,-382.74 135.47,-324 122.7,-306.25 120.32,-281.23 120.78,-262.24"/>
<polygon fill="black" stroke="black" points="124.28,-262.29 121.3,-252.13 117.29,-261.93 124.28,-262.29"/>
</g>
<!-- [root] provider[&quot;registry.terraform.io/hashicorp/aws&quot;] (close)&#45;&gt;[root] aws_instance.jenkins (expand) -->
<g id="edge33" class="edge">
<title>[root] provider[&quot;registry.terraform.io/hashicorp/aws&quot;] (close)&#45;&gt;[root] aws_instance.jenkins (expand)</title>
<path fill="none" stroke="black" d="M795.84,-432.41C827.33,-422.44 867.61,-409.68 900.91,-399.13"/>
<polygon fill="black" stroke="black" points="902.07,-402.43 910.55,-396.08 899.96,-395.76 902.07,-402.43"/>
</g>
<!-- [root] provider[&quot;registry.terraform.io/hashicorp/aws&quot;] (close)&#45;&gt;[root] aws_route_table_association.rt&#45;association&#45;pri1 (expand) -->
<g id="edge34" class="edge">
<title>[root] provider[&quot;registry.terraform.io/hashicorp/aws&quot;] (close)&#45;&gt;[root] aws_route_table_association.rt&#45;association&#45;pri1 (expand)</title>
<path fill="none" stroke="black" d="M743.47,-431.7C743.47,-423.98 743.47,-414.71 743.47,-406.11"/>
<polygon fill="black" stroke="black" points="746.97,-406.1 743.47,-396.1 739.97,-406.1 746.97,-406.1"/>
</g>
<!-- [root] provider[&quot;registry.terraform.io/hashicorp/aws&quot;] (close)&#45;&gt;[root] aws_route_table_association.rt&#45;association&#45;pri2 (expand) -->
<g id="edge35" class="edge">
<title>[root] provider[&quot;registry.terraform.io/hashicorp/aws&quot;] (close)&#45;&gt;[root] aws_route_table_association.rt&#45;association&#45;pri2 (expand)</title>
<path fill="none" stroke="black" d="M675.51,-432.76C632.52,-422.49 576.7,-409.16 531.42,-398.34"/>
<polygon fill="black" stroke="black" points="532.17,-394.92 521.63,-396 530.54,-401.73 532.17,-394.92"/>
</g>
<!-- [root] provider[&quot;registry.terraform.io/hashicorp/aws&quot;] (close)&#45;&gt;[root] aws_route_table_association.rt&#45;association&#45;pub1 (expand) -->
<g id="edge36" class="edge">
<title>[root] provider[&quot;registry.terraform.io/hashicorp/aws&quot;] (close)&#45;&gt;[root] aws_route_table_association.rt&#45;association&#45;pub1 (expand)</title>
<path fill="none" stroke="black" d="M573.84,-437.98C458.69,-428.91 323.78,-414.55 303.47,-396 286.66,-380.65 282.75,-354.38 282.55,-334.35"/>
<polygon fill="black" stroke="black" points="286.05,-334.32 282.75,-324.25 279.05,-334.18 286.05,-334.32"/>
</g>
<!-- [root] provider[&quot;registry.terraform.io/hashicorp/aws&quot;] (close)&#45;&gt;[root] aws_route_table_association.rt&#45;association&#45;pub2 (expand) -->
<g id="edge37" class="edge">
<title>[root] provider[&quot;registry.terraform.io/hashicorp/aws&quot;] (close)&#45;&gt;[root] aws_route_table_association.rt&#45;association&#45;pub2 (expand)</title>
<path fill="none" stroke="black" d="M885.81,-435.95C999.6,-424.74 1144.14,-408.47 1169.47,-396 1198.94,-381.49 1224.29,-353.08 1240.11,-332.25"/>
<polygon fill="black" stroke="black" points="1242.98,-334.25 1246.09,-324.13 1237.35,-330.1 1242.98,-334.25"/>
</g>
<!-- [root] provider[&quot;registry.terraform.io/hashicorp/aws&quot;] (close)&#45;&gt;[root] aws_s3_bucket.terraform&#45;backend (expand) -->
<g id="edge38" class="edge">
<title>[root] provider[&quot;registry.terraform.io/hashicorp/aws&quot;] (close)&#45;&gt;[root] aws_s3_bucket.terraform&#45;backend (expand)</title>
<path fill="none" stroke="black" d="M555.78,-439.8C416.06,-431.44 237.86,-417.15 167.47,-396 87.3,-371.91 1.47,-390.71 1.47,-307 1.47,-307 1.47,-307 1.47,-233 1.47,-192.55 -4.41,-175.89 20.47,-144 31.05,-130.44 45.99,-120.12 61.4,-112.36"/>
<polygon fill="black" stroke="black" points="62.94,-115.5 70.5,-108.08 59.96,-109.17 62.94,-115.5"/>
</g>
<!-- [root] provider[&quot;registry.terraform.io/hashicorp/aws&quot;] (close)&#45;&gt;[root] aws_security_group.public_web_sg (expand) -->
<g id="edge39" class="edge">
<title>[root] provider[&quot;registry.terraform.io/hashicorp/aws&quot;] (close)&#45;&gt;[root] aws_security_group.public_web_sg (expand)</title>
<path fill="none" stroke="black" d="M888.32,-436.1C1001.05,-425.38 1147.88,-409.7 1206.47,-396 1298.46,-374.48 1352.15,-401.29 1406.47,-324 1420.13,-304.56 1407.59,-279.05 1393.86,-260.33"/>
<polygon fill="black" stroke="black" points="1396.47,-257.98 1387.56,-252.25 1390.95,-262.28 1396.47,-257.98"/>
</g>
<!-- [root] root -->
<g id="node26" class="node">
<title>[root] root</title>
<ellipse fill="none" stroke="black" cx="1025.47" cy="-522" rx="47.39" ry="18"/>
<text text-anchor="middle" x="1025.47" y="-518.3" font-family="Times,serif" font-size="14.00">[root] root</text>
</g>
<!-- [root] root&#45;&gt;[root] var.ami&#45;id -->
<g id="edge41" class="edge">
<title>[root] root&#45;&gt;[root] var.ami&#45;id</title>
<path fill="none" stroke="black" d="M1025.47,-503.7C1025.47,-495.98 1025.47,-486.71 1025.47,-478.11"/>
<polygon fill="black" stroke="black" points="1028.97,-478.1 1025.47,-468.1 1021.97,-478.1 1028.97,-478.1"/>
</g>
<!-- [root] root&#45;&gt;[root] var.ec2&#45;type -->
<g id="edge42" class="edge">
<title>[root] root&#45;&gt;[root] var.ec2&#45;type</title>
<path fill="none" stroke="black" d="M1046.3,-505.81C1059.02,-496.53 1075.54,-484.49 1089.86,-474.05"/>
<polygon fill="black" stroke="black" points="1091.96,-476.85 1097.98,-468.13 1087.84,-471.19 1091.96,-476.85"/>
</g>
<!-- [root] root&#45;&gt;[root] provider[&quot;registry.terraform.io/hashicorp/aws&quot;] (close) -->
<g id="edge40" class="edge">
<title>[root] root&#45;&gt;[root] provider[&quot;registry.terraform.io/hashicorp/aws&quot;] (close)</title>
<path fill="none" stroke="black" d="M986.85,-511.41C943.75,-500.72 872.96,-483.14 818.81,-469.7"/>
<polygon fill="black" stroke="black" points="819.45,-466.25 808.9,-467.24 817.77,-473.05 819.45,-466.25"/>
</g>
</g>
</svg>
